<?xml version="1.0" encoding="iso-8859-1"?>
<!-- Generator: Adobe Illustrator 19.0.0, SVG Export Plug-In . SVG Version: 6.00 Build 0)  -->
<svg version="1.1" id="Layer_1" xmlns="http://www.w3.org/2000/svg" xmlns:xlink="http://www.w3.org/1999/xlink" x="0px" y="0px"
	 viewBox="0 0 512 512" style="enable-background:new 0 0 512 512;" xml:space="preserve">
<g>
	<g>
		<circle cx="186.182" cy="116.364" r="11.636"/>
	</g>
</g>
<g>
	<g>
		<circle cx="139.636" cy="116.364" r="11.636"/>
	</g>
</g>
<g>
	<g>
		<circle cx="232.727" cy="116.364" r="11.636"/>
	</g>
</g>
<g>
	<g>
		<path d="M279.273,46.545H93.091c-6.982,0-11.636,4.655-11.636,11.636v116.364c0,6.982,4.655,11.636,11.636,11.636h186.182
			c6.982,0,11.636-4.655,11.636-11.636V58.182C290.909,51.2,286.255,46.545,279.273,46.545z M267.636,162.909H104.727V69.818
			h162.909V162.909z"/>
	</g>
</g>
<g>
	<g>
		<path d="M219.927,297.891c-2.327-4.655-5.818-6.982-10.473-6.982h-23.273l20.945-27.927c3.491-4.655,2.327-12.8-2.327-16.291
			s-12.8-2.327-16.291,2.327L153.6,295.564c-2.327,3.491-3.491,8.145-1.164,11.636s5.818,6.982,10.473,6.982h23.273l-20.945,27.927
			c-3.491,4.654-2.327,12.8,2.327,16.291c2.327,1.164,4.655,2.327,6.982,2.327c3.491,0,6.982-1.164,9.309-4.655l34.909-46.545
			C221.091,306.036,222.255,301.382,219.927,297.891z"/>
	</g>
</g>
<g>
	<g>
		<path d="M500.364,81.455V58.182c0-6.982-4.655-11.636-11.636-11.636s-11.636,4.655-11.636,11.636v23.273h-23.273V58.182
			c0-6.982-4.655-11.636-11.636-11.636s-11.636,4.655-11.636,11.636v23.273c-6.982,0-11.636,4.655-11.636,11.636v23.273
			c0,6.982,4.655,11.636,11.636,11.636s11.636-4.655,11.636-11.636v-11.636h46.545v11.636c0,12.8-10.473,23.273-23.273,23.273
			c-6.982,0-11.636,4.655-11.636,11.636v267.636c0,12.8-10.473,23.273-23.273,23.273s-23.273-10.473-23.273-23.273V221.091
			c0-32.582-25.6-58.182-58.182-58.182h-11.636V58.182C337.455,25.6,311.855,0,279.273,0H93.091C60.509,0,34.909,25.6,34.909,58.182
			v384C15.127,442.182,0,457.309,0,477.091C0,496.873,15.127,512,34.909,512h302.545c19.782,0,34.909-15.127,34.909-34.909
			c0-19.782-15.127-34.909-34.909-34.909H93.091c-6.982,0-11.636,4.655-11.636,11.636s4.655,11.636,11.636,11.636h244.364
			c6.982,0,11.636,4.655,11.636,11.636s-4.655,11.636-11.636,11.636H34.909c-6.982,0-11.636-4.655-11.636-11.636
			s4.655-11.636,11.636-11.636h11.636c6.982,0,11.636-4.655,11.636-11.636V58.182c0-19.782,15.127-34.909,34.909-34.909h186.182
			c19.782,0,34.909,15.127,34.909,34.909v349.091c0,6.982,4.655,11.636,11.636,11.636s11.636-4.655,11.636-11.636V186.182h11.636
			c19.782,0,34.909,15.127,34.909,34.909v197.818c0,25.6,20.945,46.545,46.545,46.545c25.6,0,46.545-20.945,46.545-46.545V161.745
			C496.873,157.091,512,138.473,512,116.364V93.091C512,86.109,507.345,81.455,500.364,81.455z"/>
	</g>
</g>
<g>
</g>
<g>
</g>
<g>
</g>
<g>
</g>
<g>
</g>
<g>
</g>
<g>
</g>
<g>
</g>
<g>
</g>
<g>
</g>
<g>
</g>
<g>
</g>
<g>
</g>
<g>
</g>
<g>
</g>
</svg>
